<?xml version="1.0" encoding="UTF-8" standalone="no"?>
<!DOCTYPE svg PUBLIC "-//W3C//DTD SVG 1.1//EN"
 "http://www.w3.org/Graphics/SVG/1.1/DTD/svg11.dtd">
<!-- Generated by graphviz version 2.40.1 (20161225.0304)
 -->
<!-- Title: %3 Pages: 1 -->
<svg width="282pt" height="220pt"
 viewBox="0.00 0.00 282.00 220.00" xmlns="http://www.w3.org/2000/svg" xmlns:xlink="http://www.w3.org/1999/xlink">
<g id="graph0" class="graph" transform="scale(1 1) rotate(0) translate(4 216)">
<title>%3</title>
<!-- 11 -->
<g id="node1" class="node">
<title>11</title>
<polygon fill="#5a74ce" stroke="#000000" points="54,-212 4,-212 0,-208 0,-176 50,-176 54,-180 54,-212"/>
<polyline fill="none" stroke="#000000" points="50,-208 0,-208 "/>
<polyline fill="none" stroke="#000000" points="50,-208 50,-176 "/>
<polyline fill="none" stroke="#000000" points="50,-208 54,-212 "/>
<text text-anchor="middle" x="27" y="-190.3" font-family="Times,serif" font-size="14.00" fill="#000000">t&#45;0</text>
</g>
<!-- 21 -->
<g id="node6" class="node">
<title>21</title>
<polygon fill="#cadc88" stroke="#000000" points="54,-168 4,-168 0,-164 0,-132 50,-132 54,-136 54,-168"/>
<polyline fill="none" stroke="#000000" points="50,-164 0,-164 "/>
<polyline fill="none" stroke="#000000" points="50,-164 50,-132 "/>
<polyline fill="none" stroke="#000000" points="50,-164 54,-168 "/>
<text text-anchor="middle" x="27" y="-146.3" font-family="Times,serif" font-size="14.00" fill="#000000">t&#45;0</text>
</g>
<!-- 11&#45;&#45;21 -->
<!-- 12 -->
<g id="node2" class="node">
<title>12</title>
<polygon fill="#5a74ce" stroke="#000000" points="109,-212 59,-212 55,-208 55,-176 105,-176 109,-180 109,-212"/>
<polyline fill="none" stroke="#000000" points="105,-208 55,-208 "/>
<polyline fill="none" stroke="#000000" points="105,-208 105,-176 "/>
<polyline fill="none" stroke="#000000" points="105,-208 109,-212 "/>
<text text-anchor="middle" x="82" y="-190.3" font-family="Times,serif" font-size="14.00" fill="#000000">t&#45;1</text>
</g>
<!-- 13 -->
<g id="node3" class="node">
<title>13</title>
<polygon fill="#5a74ce" stroke="#000000" points="164,-212 114,-212 110,-208 110,-176 160,-176 164,-180 164,-212"/>
<polyline fill="none" stroke="#000000" points="160,-208 110,-208 "/>
<polyline fill="none" stroke="#000000" points="160,-208 160,-176 "/>
<polyline fill="none" stroke="#000000" points="160,-208 164,-212 "/>
<text text-anchor="middle" x="137" y="-190.3" font-family="Times,serif" font-size="14.00" fill="#000000">t&#45;2</text>
</g>
<!-- 14 -->
<g id="node4" class="node">
<title>14</title>
<polygon fill="#5a74ce" stroke="#000000" points="219,-212 169,-212 165,-208 165,-176 215,-176 219,-180 219,-212"/>
<polyline fill="none" stroke="#000000" points="215,-208 165,-208 "/>
<polyline fill="none" stroke="#000000" points="215,-208 215,-176 "/>
<polyline fill="none" stroke="#000000" points="215,-208 219,-212 "/>
<text text-anchor="middle" x="192" y="-190.3" font-family="Times,serif" font-size="14.00" fill="#000000">t&#45;3</text>
</g>
<!-- 15 -->
<g id="node5" class="node">
<title>15</title>
<polygon fill="#5a74ce" stroke="#000000" points="274,-212 224,-212 220,-208 220,-176 270,-176 274,-180 274,-212"/>
<polyline fill="none" stroke="#000000" points="270,-208 220,-208 "/>
<polyline fill="none" stroke="#000000" points="270,-208 270,-176 "/>
<polyline fill="none" stroke="#000000" points="270,-208 274,-212 "/>
<text text-anchor="middle" x="247" y="-190.3" font-family="Times,serif" font-size="14.00" fill="#000000">t&#45;4</text>
</g>
<!-- 31 -->
<g id="node11" class="node">
<title>31</title>
<polygon fill="#e43d8c" stroke="#000000" points="54,-124 4,-124 0,-120 0,-88 50,-88 54,-92 54,-124"/>
<polyline fill="none" stroke="#000000" points="50,-120 0,-120 "/>
<polyline fill="none" stroke="#000000" points="50,-120 50,-88 "/>
<polyline fill="none" stroke="#000000" points="50,-120 54,-124 "/>
<text text-anchor="middle" x="27" y="-102.3" font-family="Times,serif" font-size="14.00" fill="#000000">t&#45;0</text>
</g>
<!-- 21&#45;&#45;31 -->
<!-- 22 -->
<g id="node7" class="node">
<title>22</title>
<polygon fill="#cadc88" stroke="#000000" points="109,-168 59,-168 55,-164 55,-132 105,-132 109,-136 109,-168"/>
<polyline fill="none" stroke="#000000" points="105,-164 55,-164 "/>
<polyline fill="none" stroke="#000000" points="105,-164 105,-132 "/>
<polyline fill="none" stroke="#000000" points="105,-164 109,-168 "/>
<text text-anchor="middle" x="82" y="-146.3" font-family="Times,serif" font-size="14.00" fill="#000000">t&#45;1</text>
</g>
<!-- 23 -->
<g id="node8" class="node">
<title>23</title>
<polygon fill="#cadc88" stroke="#000000" points="164,-168 114,-168 110,-164 110,-132 160,-132 164,-136 164,-168"/>
<polyline fill="none" stroke="#000000" points="160,-164 110,-164 "/>
<polyline fill="none" stroke="#000000" points="160,-164 160,-132 "/>
<polyline fill="none" stroke="#000000" points="160,-164 164,-168 "/>
<text text-anchor="middle" x="137" y="-146.3" font-family="Times,serif" font-size="14.00" fill="#000000">t&#45;2</text>
</g>
<!-- 24 -->
<g id="node9" class="node">
<title>24</title>
<polygon fill="#cadc88" stroke="#000000" points="219,-168 169,-168 165,-164 165,-132 215,-132 219,-136 219,-168"/>
<polyline fill="none" stroke="#000000" points="215,-164 165,-164 "/>
<polyline fill="none" stroke="#000000" points="215,-164 215,-132 "/>
<polyline fill="none" stroke="#000000" points="215,-164 219,-168 "/>
<text text-anchor="middle" x="192" y="-146.3" font-family="Times,serif" font-size="14.00" fill="#000000">t&#45;3</text>
</g>
<!-- 25 -->
<g id="node10" class="node">
<title>25</title>
<polygon fill="#cadc88" stroke="#000000" points="274,-168 224,-168 220,-164 220,-132 270,-132 274,-136 274,-168"/>
<polyline fill="none" stroke="#000000" points="270,-164 220,-164 "/>
<polyline fill="none" stroke="#000000" points="270,-164 270,-132 "/>
<polyline fill="none" stroke="#000000" points="270,-164 274,-168 "/>
<text text-anchor="middle" x="247" y="-146.3" font-family="Times,serif" font-size="14.00" fill="#000000">t&#45;4</text>
</g>
<!-- 41 -->
<g id="node16" class="node">
<title>41</title>
<polygon fill="#4ccb1d" stroke="#000000" points="54,-80 4,-80 0,-76 0,-44 50,-44 54,-48 54,-80"/>
<polyline fill="none" stroke="#000000" points="50,-76 0,-76 "/>
<polyline fill="none" stroke="#000000" points="50,-76 50,-44 "/>
<polyline fill="none" stroke="#000000" points="50,-76 54,-80 "/>
<text text-anchor="middle" x="27" y="-58.3" font-family="Times,serif" font-size="14.00" fill="#000000">t&#45;0</text>
</g>
<!-- 31&#45;&#45;41 -->
<!-- 32 -->
<g id="node12" class="node">
<title>32</title>
<polygon fill="#e43d8c" stroke="#000000" points="109,-124 59,-124 55,-120 55,-88 105,-88 109,-92 109,-124"/>
<polyline fill="none" stroke="#000000" points="105,-120 55,-120 "/>
<polyline fill="none" stroke="#000000" points="105,-120 105,-88 "/>
<polyline fill="none" stroke="#000000" points="105,-120 109,-124 "/>
<text text-anchor="middle" x="82" y="-102.3" font-family="Times,serif" font-size="14.00" fill="#000000">t&#45;1</text>
</g>
<!-- 33 -->
<g id="node13" class="node">
<title>33</title>
<polygon fill="#e43d8c" stroke="#000000" points="164,-124 114,-124 110,-120 110,-88 160,-88 164,-92 164,-124"/>
<polyline fill="none" stroke="#000000" points="160,-120 110,-120 "/>
<polyline fill="none" stroke="#000000" points="160,-120 160,-88 "/>
<polyline fill="none" stroke="#000000" points="160,-120 164,-124 "/>
<text text-anchor="middle" x="137" y="-102.3" font-family="Times,serif" font-size="14.00" fill="#000000">t&#45;2</text>
</g>
<!-- 34 -->
<g id="node14" class="node">
<title>34</title>
<polygon fill="#e43d8c" stroke="#000000" points="219,-124 169,-124 165,-120 165,-88 215,-88 219,-92 219,-124"/>
<polyline fill="none" stroke="#000000" points="215,-120 165,-120 "/>
<polyline fill="none" stroke="#000000" points="215,-120 215,-88 "/>
<polyline fill="none" stroke="#000000" points="215,-120 219,-124 "/>
<text text-anchor="middle" x="192" y="-102.3" font-family="Times,serif" font-size="14.00" fill="#000000">t&#45;3</text>
</g>
<!-- 35 -->
<g id="node15" class="node">
<title>35</title>
<polygon fill="#e43d8c" stroke="#000000" points="274,-124 224,-124 220,-120 220,-88 270,-88 274,-92 274,-124"/>
<polyline fill="none" stroke="#000000" points="270,-120 220,-120 "/>
<polyline fill="none" stroke="#000000" points="270,-120 270,-88 "/>
<polyline fill="none" stroke="#000000" points="270,-120 274,-124 "/>
<text text-anchor="middle" x="247" y="-102.3" font-family="Times,serif" font-size="14.00" fill="#000000">t&#45;4</text>
</g>
<!-- 51 -->
<g id="node21" class="node">
<title>51</title>
<polygon fill="#d937fa" stroke="#000000" points="54,-36 4,-36 0,-32 0,0 50,0 54,-4 54,-36"/>
<polyline fill="none" stroke="#000000" points="50,-32 0,-32 "/>
<polyline fill="none" stroke="#000000" points="50,-32 50,0 "/>
<polyline fill="none" stroke="#000000" points="50,-32 54,-36 "/>
<text text-anchor="middle" x="27" y="-14.3" font-family="Times,serif" font-size="14.00" fill="#000000">t&#45;0</text>
</g>
<!-- 41&#45;&#45;51 -->
<!-- 42 -->
<g id="node17" class="node">
<title>42</title>
<polygon fill="#4ccb1d" stroke="#000000" points="109,-80 59,-80 55,-76 55,-44 105,-44 109,-48 109,-80"/>
<polyline fill="none" stroke="#000000" points="105,-76 55,-76 "/>
<polyline fill="none" stroke="#000000" points="105,-76 105,-44 "/>
<polyline fill="none" stroke="#000000" points="105,-76 109,-80 "/>
<text text-anchor="middle" x="82" y="-58.3" font-family="Times,serif" font-size="14.00" fill="#000000">t&#45;1</text>
</g>
<!-- 43 -->
<g id="node18" class="node">
<title>43</title>
<polygon fill="#4ccb1d" stroke="#000000" points="164,-80 114,-80 110,-76 110,-44 160,-44 164,-48 164,-80"/>
<polyline fill="none" stroke="#000000" points="160,-76 110,-76 "/>
<polyline fill="none" stroke="#000000" points="160,-76 160,-44 "/>
<polyline fill="none" stroke="#000000" points="160,-76 164,-80 "/>
<text text-anchor="middle" x="137" y="-58.3" font-family="Times,serif" font-size="14.00" fill="#000000">t&#45;2</text>
</g>
<!-- 44 -->
<g id="node19" class="node">
<title>44</title>
<polygon fill="#4ccb1d" stroke="#000000" points="219,-80 169,-80 165,-76 165,-44 215,-44 219,-48 219,-80"/>
<polyline fill="none" stroke="#000000" points="215,-76 165,-76 "/>
<polyline fill="none" stroke="#000000" points="215,-76 215,-44 "/>
<polyline fill="none" stroke="#000000" points="215,-76 219,-80 "/>
<text text-anchor="middle" x="192" y="-58.3" font-family="Times,serif" font-size="14.00" fill="#000000">t&#45;3</text>
</g>
<!-- 45 -->
<g id="node20" class="node">
<title>45</title>
<polygon fill="#4ccb1d" stroke="#000000" points="274,-80 224,-80 220,-76 220,-44 270,-44 274,-48 274,-80"/>
<polyline fill="none" stroke="#000000" points="270,-76 220,-76 "/>
<polyline fill="none" stroke="#000000" points="270,-76 270,-44 "/>
<polyline fill="none" stroke="#000000" points="270,-76 274,-80 "/>
<text text-anchor="middle" x="247" y="-58.3" font-family="Times,serif" font-size="14.00" fill="#000000">t&#45;4</text>
</g>
<!-- 52 -->
<g id="node22" class="node">
<title>52</title>
<polygon fill="#d937fa" stroke="#000000" points="109,-36 59,-36 55,-32 55,0 105,0 109,-4 109,-36"/>
<polyline fill="none" stroke="#000000" points="105,-32 55,-32 "/>
<polyline fill="none" stroke="#000000" points="105,-32 105,0 "/>
<polyline fill="none" stroke="#000000" points="105,-32 109,-36 "/>
<text text-anchor="middle" x="82" y="-14.3" font-family="Times,serif" font-size="14.00" fill="#000000">t&#45;1</text>
</g>
<!-- 53 -->
<g id="node23" class="node">
<title>53</title>
<polygon fill="#d937fa" stroke="#000000" points="164,-36 114,-36 110,-32 110,0 160,0 164,-4 164,-36"/>
<polyline fill="none" stroke="#000000" points="160,-32 110,-32 "/>
<polyline fill="none" stroke="#000000" points="160,-32 160,0 "/>
<polyline fill="none" stroke="#000000" points="160,-32 164,-36 "/>
<text text-anchor="middle" x="137" y="-14.3" font-family="Times,serif" font-size="14.00" fill="#000000">t&#45;2</text>
</g>
<!-- 54 -->
<g id="node24" class="node">
<title>54</title>
<polygon fill="#d937fa" stroke="#000000" points="219,-36 169,-36 165,-32 165,0 215,0 219,-4 219,-36"/>
<polyline fill="none" stroke="#000000" points="215,-32 165,-32 "/>
<polyline fill="none" stroke="#000000" points="215,-32 215,0 "/>
<polyline fill="none" stroke="#000000" points="215,-32 219,-36 "/>
<text text-anchor="middle" x="192" y="-14.3" font-family="Times,serif" font-size="14.00" fill="#000000">t&#45;3</text>
</g>
<!-- 55 -->
<g id="node25" class="node">
<title>55</title>
<polygon fill="#d937fa" stroke="#000000" points="274,-36 224,-36 220,-32 220,0 270,0 274,-4 274,-36"/>
<polyline fill="none" stroke="#000000" points="270,-32 220,-32 "/>
<polyline fill="none" stroke="#000000" points="270,-32 270,0 "/>
<polyline fill="none" stroke="#000000" points="270,-32 274,-36 "/>
<text text-anchor="middle" x="247" y="-14.3" font-family="Times,serif" font-size="14.00" fill="#000000">t&#45;4</text>
</g>
</g>
</svg>
